<?xml version="1.0" standalone="no"?>
<!DOCTYPE svg PUBLIC "-//W3C//DTD SVG 20010904//EN"
 "http://www.w3.org/TR/2001/REC-SVG-20010904/DTD/svg10.dtd">
<svg version="1.0" xmlns="http://www.w3.org/2000/svg"
 width="504.000000pt" height="504.000000pt" viewBox="0 0 504.000000 504.000000"
 preserveAspectRatio="xMidYMid meet">
<metadata>
Created by potrace 1.14, written by Peter Selinger 2001-2017
</metadata>
<g transform="translate(0.000000,504.000000) scale(0.100000,-0.100000)"
fill="#000000" stroke="none">
<path d="M2734 4976 c-130 -26 -241 -111 -302 -233 -34 -67 -54 -160 -48 -219
14 -131 18 -154 26 -154 4 0 10 -12 13 -27 3 -16 17 -62 32 -103 33 -89 44
-217 25 -275 -57 -172 -261 -251 -455 -175 -95 37 -172 126 -190 218 -2 9 -4
19 -5 22 -5 13 4 177 10 190 1 3 2 8 1 13 0 4 4 7 10 7 6 0 9 6 6 14 -3 8 -2
16 3 18 4 2 10 14 12 28 1 14 9 30 16 35 15 12 25 72 14 79 -14 9 -154 -43
-206 -76 -75 -47 -196 -173 -243 -253 -53 -90 -73 -159 -79 -270 -6 -100 14
-190 76 -335 77 -179 24 -330 -133 -380 -72 -23 -136 -22 -195 2 -57 24 -123
113 -137 183 -20 105 -24 154 -14 160 4 3 7 22 8 42 2 66 5 83 14 83 5 0 5 10
2 21 -4 12 -3 19 2 16 5 -3 9 3 9 14 0 24 -19 24 -72 0 -167 -76 -271 -292
-259 -541 3 -86 43 -242 81 -320 37 -76 78 -124 164 -188 41 -31 94 -76 117
-99 38 -39 123 -154 123 -167 0 -3 11 -29 24 -58 44 -100 48 -133 61 -538 4
-149 18 -234 54 -325 19 -47 92 -130 146 -166 28 -19 52 -37 53 -42 2 -4 7 -5
12 -2 5 3 16 -2 24 -11 9 -8 16 -13 16 -10 0 4 19 -6 42 -20 22 -14 46 -27 52
-28 6 -2 28 -10 50 -19 21 -9 42 -17 47 -17 5 0 9 -4 9 -8 0 -5 6 -9 13 -9 6
0 32 -9 57 -20 51 -24 85 -36 85 -31 1 2 13 -5 28 -15 15 -9 27 -15 27 -12 0
3 9 1 21 -5 11 -6 30 -13 41 -15 27 -6 88 -24 113 -35 11 -5 45 -14 75 -21 30
-6 60 -14 65 -18 6 -3 17 -6 25 -6 8 0 21 -4 29 -9 8 -5 27 -11 43 -13 15 -2
40 -5 56 -8 44 -8 114 -16 154 -18 20 -1 40 -5 44 -10 10 -10 44 -9 44 1 0 4
15 8 33 8 39 1 183 57 332 129 61 29 120 56 133 60 12 3 20 10 17 15 -3 5 8
11 25 15 16 4 30 11 30 17 0 6 3 8 7 5 3 -4 11 -3 17 2 6 5 52 30 101 57 50
26 92 50 95 54 3 3 26 17 53 30 26 14 47 28 47 31 0 4 14 12 30 19 17 7 30 16
30 21 0 5 5 9 11 9 6 0 17 6 24 13 34 29 45 37 55 37 6 0 8 5 5 10 -3 6 1 10
9 10 9 0 16 5 16 11 0 5 5 7 10 4 6 -3 10 2 10 11 0 10 3 15 6 12 3 -3 16 5
29 18 21 21 32 42 43 84 2 8 5 128 8 265 2 138 6 273 9 300 7 73 12 110 15
110 1 0 4 13 6 30 3 16 9 32 14 35 4 3 10 16 11 30 2 14 7 27 11 30 3 3 8 14
10 25 1 11 11 29 21 40 10 11 26 33 35 48 16 27 150 123 223 160 19 10 51 31
70 47 18 17 39 30 45 30 6 0 22 12 36 28 14 15 40 41 59 58 39 36 95 112 91
125 -1 5 2 9 8 9 5 0 10 5 10 11 0 6 6 17 14 25 16 15 45 107 53 164 7 52 7
180 0 220 -10 56 -53 181 -80 231 -54 100 -150 228 -205 272 -12 10 -28 25
-36 32 -53 54 -238 118 -217 76 45 -91 61 -127 61 -141 0 -9 4 -20 9 -25 14
-15 31 -120 31 -192 0 -155 -85 -284 -227 -343 -184 -77 -381 8 -428 185 -14
54 -13 79 7 150 11 39 20 76 21 83 0 6 5 12 10 12 6 0 7 3 4 7 -4 3 0 14 9 24
9 10 14 25 11 34 -4 8 -1 15 4 15 6 0 9 9 6 20 -3 11 0 20 5 20 6 0 8 12 5 30
-4 17 -3 30 2 30 9 0 7 92 -4 160 -14 89 -123 248 -197 286 -14 7 -32 20 -40
28 -8 7 -34 24 -59 36 -24 13 -46 25 -49 29 -3 3 -25 17 -50 30 -25 14 -47 27
-50 30 -3 3 -21 15 -40 25 -50 28 -158 123 -186 165 -29 44 -52 151 -33 151 5
0 7 11 3 25 -4 16 -2 25 6 25 6 0 8 5 5 10 -3 6 -1 10 5 10 6 0 8 5 5 10 -3 6
-1 10 6 10 7 0 10 3 6 6 -3 3 1 13 9 22 8 10 15 22 16 27 0 6 7 15 15 20 8 6
16 22 17 37 3 23 -1 27 -33 32 -53 9 -128 6 -197 -8z"/>
</g>
</svg>
